<?xml version="1.0" standalone="no"?>
<!DOCTYPE svg PUBLIC "-//W3C//DTD SVG 20010904//EN"
 "http://www.w3.org/TR/2001/REC-SVG-20010904/DTD/svg10.dtd">
<svg version="1.0" xmlns="http://www.w3.org/2000/svg"
 width="261.000000pt" height="261.000000pt" viewBox="0 0 261.000000 261.000000"
 preserveAspectRatio="xMidYMid meet">
<metadata>
Created by potrace 1.11, written by Peter Selinger 2001-2013
</metadata>
<g transform="translate(0.000000,261.000000) scale(0.100000,-0.100000)"
fill="#000000" stroke="none">
<path d="M1199 2596 c-2 -2 -32 -7 -67 -10 -209 -22 -461 -129 -639 -274 -47
-38 -50 -46 -27 -69 14 -14 11 -20 -27 -59 -43 -44 -43 -44 -64 -24 -24 23
-27 21 -87 -50 -111 -133 -228 -379 -253 -533 -3 -17 -7 -43 -10 -57 -23 -127
-23 -355 0 -440 2 -8 7 -30 10 -48 11 -65 68 -228 106 -304 57 -114 173 -278
196 -278 4 0 15 7 25 16 17 16 20 14 63 -27 l45 -43 -21 -22 -20 -21 48 -39
c154 -126 302 -205 481 -255 42 -12 91 -24 107 -26 17 -3 49 -8 72 -13 71 -13
340 -4 423 14 209 45 369 118 537 245 63 47 70 56 60 72 -7 11 -15 19 -19 19
-18 0 -6 25 29 61 l37 38 24 -22 24 -22 34 40 c240 279 354 694 289 1055 -3
14 -7 40 -10 57 -10 63 -57 199 -98 283 -40 85 -136 235 -176 277 -20 21 -51
22 -51 2 0 -20 -28 -7 -64 30 l-38 39 22 24 21 23 -43 38 c-154 134 -407 254
-598 283 -19 3 -43 8 -53 10 -20 6 -283 15 -288 10z"/>
</g>
</svg>
